<?xml version="1.0" standalone="no"?>
<!DOCTYPE svg PUBLIC "-//W3C//DTD SVG 20010904//EN"
 "http://www.w3.org/TR/2001/REC-SVG-20010904/DTD/svg10.dtd">
<svg version="1.0" xmlns="http://www.w3.org/2000/svg"
 width="512.000000pt" height="512.000000pt" viewBox="0 0 512.000000 512.000000"
 preserveAspectRatio="xMidYMid meet">
<metadata>
Created by potrace 1.14, written by Peter Selinger 2001-2017
</metadata>
<g transform="translate(0.000000,512.000000) scale(0.100000,-0.100000)"
fill="#000000" stroke="none">
<path d="M3232 4428 c-6 -6 -12 -18 -12 -25 0 -18 159 -213 174 -213 18 0 36
22 36 45 0 27 -140 199 -165 203 -11 1 -26 -3 -33 -10z"/>
<path d="M2950 4391 c-5 -11 -10 -22 -10 -25 0 -2 34 -40 75 -83 81 -84 184
-222 218 -291 30 -61 87 -72 87 -17 0 51 -139 252 -254 368 -69 69 -98 81
-116 48z"/>
<path d="M2657 4363 c-21 -21 -3 -51 54 -93 122 -89 270 -271 345 -425 24 -50
44 -98 44 -106 0 -39 64 -55 75 -19 9 27 -9 78 -63 184 -58 113 -144 230 -241
327 -117 116 -187 160 -214 132z"/>
<path d="M2343 4260 c-27 -11 -35 -27 -74 -137 -57 -164 -130 -270 -322 -470
-67 -71 -130 -144 -140 -165 -70 -148 82 -378 250 -378 17 0 59 15 93 33 41
20 65 28 67 20 11 -32 127 -194 162 -226 64 -58 119 -46 171 38 51 83 47 129
-16 156 -35 15 -44 23 -44 44 0 23 -24 58 -47 66 -6 2 -14 14 -17 27 -6 19 -2
25 36 41 81 34 178 52 329 59 151 8 152 8 176 37 24 27 25 35 21 109 -4 58
-13 99 -31 143 -105 246 -363 544 -518 598 -47 17 -64 18 -96 5z m156 -124
c180 -134 404 -463 418 -615 5 -50 3 -62 -10 -67 -22 -8 -106 39 -168 95 l-51
46 17 58 c10 34 14 72 11 90 -17 90 -95 144 -191 132 l-52 -6 -40 88 c-23 48
-46 106 -52 128 -12 44 -14 98 -5 108 10 10 71 -19 123 -57z m-149 -173 c64
-158 224 -377 344 -473 l56 -45 -92 -12 c-104 -14 -176 -33 -254 -68 -53 -23
-54 -25 -54 -65 0 -51 22 -105 49 -120 12 -6 21 -19 21 -30 0 -37 23 -69 57
-81 l33 -11 -22 -39 c-12 -21 -29 -39 -39 -39 -21 0 -82 79 -149 193 -29 49
-58 91 -66 94 -7 3 -41 -12 -75 -32 -80 -49 -136 -56 -184 -24 -61 41 -115
134 -115 196 0 37 29 73 201 248 149 153 159 165 205 262 27 56 52 102 55 103
3 0 16 -26 29 -57z"/>
<path d="M589 3601 l-29 -29 0 -1310 0 -1309 21 -27 20 -26 -271 0 -272 0 -29
-29 c-24 -25 -29 -38 -29 -78 0 -42 5 -54 31 -79 l30 -29 2499 0 2499 0 30 29
c26 25 31 37 31 79 0 40 -5 53 -29 78 l-29 29 -283 0 -282 0 19 21 c18 21 19
57 19 1341 l0 1320 -28 24 -28 24 -569 0 -568 0 -20 -57 c-11 -32 -23 -66 -27
-75 -7 -17 23 -18 544 -18 l551 0 0 -1230 0 -1230 -1835 0 -1835 0 0 1230 0
1230 424 0 423 0 7 43 c4 23 9 57 12 75 l6 32 -487 0 -487 0 -29 -29z m2149
-2763 c18 -18 14 -56 -7 -68 -11 -5 -86 -10 -171 -10 -85 0 -160 5 -171 10
-21 12 -25 50 -7 68 17 17 339 17 356 0z"/>
<path d="M1290 2730 l0 -330 75 0 75 0 -2 328 -3 327 -72 3 -73 3 0 -331z"/>
<path d="M3585 2864 c4 -98 10 -199 14 -224 l6 -45 65 3 c36 2 133 9 215 15
l150 12 3 33 c2 18 -4 56 -13 85 -54 165 -200 281 -371 294 l-76 6 7 -179z
m190 102 c102 -46 202 -168 220 -267 l7 -36 -64 -6 c-138 -14 -295 -19 -300
-11 -3 5 -9 87 -13 183 l-7 174 52 -6 c28 -3 76 -17 105 -31z"/>
<path d="M1030 2690 l0 -290 70 0 70 0 0 290 0 290 -70 0 -70 0 0 -290z"/>
<path d="M3397 2936 c-156 -65 -250 -208 -249 -381 0 -235 174 -408 412 -408
68 0 97 5 145 24 33 14 59 29 58 35 -1 5 -47 87 -101 182 l-100 172 -29 198
c-33 227 -29 222 -136 178z"/>
<path d="M1550 2620 l0 -220 75 0 75 0 0 220 0 220 -75 0 -75 0 0 -220z"/>
<path d="M3642 2531 c10 -27 205 -311 213 -310 15 0 59 41 98 92 36 47 61 110
72 185 l7 42 -197 0 c-109 0 -195 -4 -193 -9z"/>
<path d="M1002 2048 c-18 -18 -15 -53 6 -71 17 -16 102 -17 1011 -17 665 0
999 3 1012 10 22 12 26 59 7 78 -17 17 -2019 17 -2036 0z"/>
<path d="M1002 1748 c-17 -17 -15 -54 4 -72 14 -14 90 -16 684 -16 594 0 670
2 684 16 19 18 21 55 4 72 -17 17 -1359 17 -1376 0z"/>
<path d="M2482 1748 c-7 -7 -12 -24 -12 -38 0 -14 5 -31 12 -38 16 -16 1589
-17 1619 -2 22 12 26 59 7 78 -17 17 -1609 17 -1626 0z"/>
<path d="M1022 1414 c-12 -8 -22 -26 -22 -39 0 -58 -95 -55 1560 -55 1655 0
1560 -3 1560 55 0 58 95 55 -1560 55 -1356 0 -1518 -2 -1538 -16z"/>
</g>
</svg>
